<svg xmlns="http://www.w3.org/2000/svg" width="9.732" height="15.888" viewBox="0 0 9.732 15.888"><defs><style>.a{fill:#0d3996;stroke:#0d3996;stroke-width:0.5px;}</style></defs><g transform="translate(-131.576 17.718) rotate(-90)"><g transform="translate(2.081 131.826)"><path class="a" d="M17.2,136.089h0l-3.694-3.872a.682.682,0,0,0-1,0,.773.773,0,0,0,0,1.053l2.48,2.6H2.788a.745.745,0,0,0,0,1.489h12.2l-2.48,2.6a.773.773,0,0,0,0,1.053.682.682,0,0,0,1,0l3.694-3.871h0A.773.773,0,0,0,17.2,136.089Z" transform="translate(-2.081 -132)"/></g></g></svg>