<svg xmlns="http://www.w3.org/2000/svg" width="23.734" height="22.186" viewBox="0 0 23.734 22.186"><defs><style>.a{fill:#ffffff;}</style></defs><g transform="translate(0 0)"><path class="a" d="M22.175,31.53l1.548-9.287a.774.774,0,0,0-.763-.9H5.506l-.222-2.532A2.311,2.311,0,0,0,2.972,16.7H.774a.774.774,0,1,0,0,1.548h2.2a.77.77,0,0,1,.771.7L5.035,33.676a2.311,2.311,0,0,0,2.312,2.111H8.388a2.322,2.322,0,1,0,4.377,0h3.362a2.322,2.322,0,1,0,4.377,0h.907a.774.774,0,1,0,0-1.548H7.347a.77.77,0,0,1-.771-.7l-.12-1.362H21.412A.774.774,0,0,0,22.175,31.53Zm-3.859,4.258a.774.774,0,1,1-.774.774A.775.775,0,0,1,18.316,35.788Zm-7.739,0a.774.774,0,1,1-.774.774A.775.775,0,0,1,10.577,35.788Zm6.965-12.9h4.5l-.516,3.1H17.542ZM9.8,30.628H6.321l-.272-3.1H9.8v3.1Zm0-4.643H5.914l-.272-3.1H9.8Zm6.191,4.643H11.351v-3.1h4.643Zm0-4.643H11.351v-3.1h4.643Zm4.762,4.643H17.542v-3.1h3.73Z" transform="translate(0 -16.698)"/></g></svg>