<svg xmlns="http://www.w3.org/2000/svg" width="13.871" height="13.197" viewBox="0 0 13.871 13.197"><defs><style>.a{fill:#d1d1d1;}</style></defs><path class="a" d="M8.885,14.864a.407.407,0,0,1-.363-.264l-1.5-4.616c-.047-.146-.124-.146-.172,0L5.35,14.6a.407.407,0,0,1-.363.264H.133c-.153,0-.177.073-.053.163L4.006,17.88a.407.407,0,0,1,.139.427l-1.5,4.616c-.047.146.015.191.139.1l3.927-2.853a.407.407,0,0,1,.449,0l3.927,2.853c.124.09.186.045.139-.1l-1.5-4.616a.407.407,0,0,1,.139-.427l3.927-2.853c.124-.09.1-.163-.053-.163H8.885Z" transform="translate(0 -9.874)"/></svg>